<svg xmlns="http://www.w3.org/2000/svg" width="104" height="10"><defs><linearGradient id="9hu0a" x1="64" x2="104" y1="5" y2="6" gradientUnits="userSpaceOnUse"><stop offset="0" stop-color="#fff" stop-opacity=".5"/><stop offset="1" stop-color="#fff" stop-opacity=".5"/></linearGradient><linearGradient id="9hu0b" x1="0" x2="40" y1="5" y2="6" gradientUnits="userSpaceOnUse"><stop offset="0" stop-color="#fff" stop-opacity=".5"/><stop offset="1" stop-color="#fff" stop-opacity=".5"/></linearGradient></defs><g fill="#fff"><path d="M103.5 5a.5.5 0 110 1H68.95a2.5 2.5 0 110-1z"/><path d="M103.5 5a.5.5 0 110 1H68.95a2.5 2.5 0 110-1zM.5 5h34.55a2.501 2.501 0 110 1H.5a.5.5 0 010-1z"/><path d="M.5 5h34.55a2.501 2.501 0 110 1H.5a.5.5 0 010-1zM52 0a5 5 0 110 10 5 5 0 010-10z"/><path fill-opacity=".8" d="M52 0a5 5 0 110 10 5 5 0 010-10z"/></g></svg>