<svg version="1.1" id="Слой_1" xmlns="http://www.w3.org/2000/svg" xmlns:xlink="http://www.w3.org/1999/xlink" x="0" y="0" viewBox="0 0 18 18" xml:space="preserve"><path d="M9 0c5 0 9 4 9 9s-4 9-9 9-9-4-9-9 4-9 9-9z" fill="#fff"/><defs><circle id="SVGID_1_" cx="9" cy="9" r="9"/></defs><clipPath id="SVGID_2_"><use xlink:href="#SVGID_1_" overflow="visible"/></clipPath><path d="M9 0c5 0 9 4 9 9s-4 9-9 9-9-4-9-9 4-9 9-9z" clip-path="url(#SVGID_2_)" fill="none" stroke="#7aafe6" stroke-width="2" stroke-miterlimit="20"/><path d="M9 7c1.1 0 2 .9 2 2s-.9 2-2 2-2-.9-2-2 .9-2 2-2z" fill="#7aafe6"/></svg>