<svg xmlns="http://www.w3.org/2000/svg" width="104" height="10"><defs><linearGradient id="72sca" x1="64" x2="104" y1="5" y2="6" gradientUnits="userSpaceOnUse"><stop offset="0" stop-color="#fff" stop-opacity=".5"/><stop offset="1" stop-color="#fff" stop-opacity=".5"/></linearGradient><linearGradient id="72scb" x1="0" x2="40" y1="5" y2="6" gradientUnits="userSpaceOnUse"><stop offset="0" stop-color="#fff" stop-opacity=".5"/><stop offset="1" stop-color="#fff" stop-opacity=".5"/></linearGradient></defs><path fill="#7aafe6" d="M52 0a5 5 0 110 10 5 5 0 010-10zm51.5 5a.5.5 0 010 1H68.95a2.501 2.501 0 110-1z"/><path fill="url(#72sca)" d="M103.5 5a.5.5 0 010 1H68.95a2.501 2.501 0 110-1z"/><path fill="#7aafe6" d="M.5 5h34.55a2.5 2.5 0 110 1H.5a.5.5 0 010-1z"/><path fill="url(#72scb)" d="M.5 5h34.55a2.5 2.5 0 110 1H.5a.5.5 0 010-1z"/></svg>